<svg width="40" height="40" viewBox="0 0 40 40" fill="none" xmlns="http://www.w3.org/2000/svg" xmlns:xlink="http://www.w3.org/1999/xlink">
<path d="M40,20C40,31.046 31.046,40 20,40C8.954,40 0,31.046 0,20C0,8.954 8.954,0 20,0C31.046,0 40,8.954 40,20ZM5.6,20C5.6,27.953 12.047,34.4 20,34.4C27.953,34.4 34.4,27.953 34.4,20C34.4,12.047 27.953,5.6 20,5.6C12.047,5.6 5.6,12.047 5.6,20Z" fill="#404C5A"/>
<path d="M20,2.8C20,1.254 21.26,-0.02 22.791,0.196C26.469,0.714 29.95,2.25 32.828,4.656C36.426,7.664 38.853,11.841 39.684,16.456C40.514,21.072 39.697,25.833 37.374,29.906C35.516,33.165 32.789,35.819 29.523,37.587C28.163,38.324 26.538,37.569 25.999,36.12L25.999,36.12C25.459,34.671 26.218,33.08 27.535,32.271C29.586,31.012 31.302,29.249 32.509,27.133C34.182,24.199 34.77,20.772 34.172,17.449C33.574,14.125 31.827,11.118 29.236,8.952C27.367,7.389 25.144,6.336 22.782,5.871C21.265,5.573 20,4.346 20,2.8L20,2.8Z" fill="#9BE0FF"/>
<path d="M30,15.715L28.571,17.143L26.429,15.001L24.286,17.143L27.856,20.715L26.428,22.143L25.714,21.429L19.285,27.857L13.571,27.857L11.428,30L10,28.572L12.143,26.429L12.143,20.715L18.571,14.286L17.857,13.572L19.285,12.144L22.857,15.714L24.999,13.572L22.857,11.429L24.286,10L30,15.714L30,15.715ZM17.857,22.142L14.999,19.285L13.571,20.714L16.429,23.57L17.857,22.142ZM20.714,19.285L17.857,16.429L16.429,17.858L19.285,20.715L20.714,19.286L20.714,19.285Z" fill="#9BE0FF"/>
</svg>
