<svg width="24" height="22" viewBox="0 0 24 22" fill="none" xmlns="http://www.w3.org/2000/svg" xmlns:xlink="http://www.w3.org/1999/xlink">
<path d="M12.001,1.82C14.82,-0.69 19.176,-0.607 21.891,2.091C24.606,4.79 24.699,9.089 22.174,11.893L11.999,22L1.825,11.893C-0.7,9.089 -0.605,4.783 2.108,2.091C4.826,-0.603 9.174,-0.694 12.001,1.82L12.001,1.82Z" fill="#FF3838"/>
<g filter="url(#filter1_104)">
<path d="M12.001,1.82C14.82,-0.69 19.176,-0.607 21.891,2.091C24.606,4.79 24.699,9.089 22.174,11.893L11.999,22L1.825,11.893C-0.7,9.089 -0.605,4.783 2.108,2.091C4.826,-0.603 9.174,-0.694 12.001,1.82L12.001,1.82Z" fill="#FF3838"/>
</g>
<defs>
<filter id="filter1_104" x="-3" y="-3" width="18" height="17" filterUnits="userSpaceOnUse" color-interpolation-filters="sRGB">
<feFlood flood-opacity="0" result="BackgroundImageFix"/>
<feColorMatrix in="SourceAlpha" type="matrix" values="0 0 0 0 0 0 0 0 0 0 0 0 0 0 0 0 0 0 127 0" result="hardAlpha"/>
<feMorphology radius="0" operator="dilate" in="SourceAlpha" result="0dropshadow"/>
<feOffset dx="0" dy="0"/>
<feGaussianBlur stdDeviation="1.5"/>
<feComposite in2="hardAlpha" operator="out"/>
<feColorMatrix type="matrix" values="0 0 0 0 1 0 0 0 0 0.219608 0 0 0 0 0.219608 0 0 0 1 0"/>
<feBlend mode="normal" in2="BackgroundImageFix" result="0dropshadow"/>
<feBlend mode="normal" in="SourceGraphic" in2="0dropshadow" result="shape"/>
</filter>
</defs>
</svg>
