<svg width="40" height="40" viewBox="0 0 40 40" fill="none" xmlns="http://www.w3.org/2000/svg" xmlns:xlink="http://www.w3.org/1999/xlink">
<path d="M40,20C40,31.046 31.046,40 20,40C8.954,40 0,31.046 0,20C0,8.954 8.954,0 20,0C31.046,0 40,8.954 40,20ZM5.6,20C5.6,27.953 12.047,34.4 20,34.4C27.953,34.4 34.4,27.953 34.4,20C34.4,12.047 27.953,5.6 20,5.6C12.047,5.6 5.6,12.047 5.6,20Z" fill="#404C5A"/>
<path d="M20,2.8C20,1.254 21.26,-0.02 22.791,0.196C26.022,0.651 29.107,1.892 31.769,3.829C35.188,6.317 37.73,9.826 39.031,13.85C40.331,17.874 40.323,22.207 39.006,26.225C37.69,30.244 35.134,33.743 31.704,36.217C28.275,38.692 24.15,40.017 19.921,40C15.692,39.983 11.577,38.626 8.168,36.124C4.758,33.622 2.229,30.104 0.945,26.075C-0.055,22.939 -0.261,19.62 0.325,16.41C0.602,14.889 2.208,14.094 3.676,14.581L3.676,14.581C5.143,15.069 5.909,16.656 5.714,18.19C5.452,20.257 5.641,22.368 6.28,24.374C7.205,27.275 9.026,29.808 11.481,31.61C13.936,33.411 16.898,34.388 19.943,34.4C22.988,34.412 25.958,33.459 28.427,31.677C30.896,29.895 32.737,27.376 33.685,24.482C34.632,21.589 34.639,18.469 33.702,15.572C32.766,12.674 30.935,10.149 28.473,8.357C26.771,7.118 24.827,6.274 22.782,5.871C21.265,5.573 20,4.346 20,2.8L20,2.8Z" fill="#E8E8E8"/>
<path d="M12.696,11.66L20,10L27.304,11.66C27.501,11.705 27.678,11.817 27.804,11.979C27.931,12.14 28,12.34 28,12.547L28,21.626C28,22.524 27.783,23.408 27.369,24.2C26.954,24.992 26.355,25.666 25.625,26.165L20,30L14.375,26.165C13.645,25.667 13.046,24.992 12.631,24.2C12.217,23.409 12,22.525 12,21.627L12,12.547C12,12.34 12.069,12.14 12.196,11.979C12.322,11.817 12.499,11.705 12.696,11.66L12.696,11.66Z" fill="#E8E8E8"/>
</svg>
