<svg width="24" height="22" viewBox="0 0 24 22" fill="none" xmlns="http://www.w3.org/2000/svg" xmlns:xlink="http://www.w3.org/1999/xlink">
<g filter="url(#filter1_109)">
<path d="M23,17.802C23.37,19.877 22.456,21.981 20,21.991C15.389,22.011 8.611,21.991 4,21.991C1.508,21.991 0.652,19.922 1,17.802L23,17.802ZM22.535,16.755C22.528,16.755 1.393,16.753 1.365,16.749C0.601,16.678 0,16.004 0,15.184C0,14.364 0.601,13.691 1.365,13.62C1.393,13.616 3.481,13.614 3.481,13.614C5.851,13.631 6.333,15.714 7.5,15.708C8.667,15.702 9.281,13.639 11.465,13.614L22.535,13.614C23.347,13.633 24,14.33 24,15.184C24,16.039 23.347,16.735 22.535,16.755ZM20.465,9.425L22.535,9.425C23.347,9.445 24,10.141 24,10.996C24,11.85 23.347,12.546 22.535,12.566C22.528,12.566 1.393,12.564 1.365,12.56C0.601,12.489 0,11.816 0,10.996C0,10.176 0.601,9.502 1.365,9.431C1.393,9.427 12.481,9.425 12.481,9.425C14.851,9.443 15.333,11.525 16.5,11.519C17.667,11.513 18.281,9.45 20.465,9.425ZM23,8.378L1,8.378C1,4.2 5.377,0 12,0C18.623,0 23,4.2 23,8.378ZM11.5,4.189C11.776,4.189 12,4.423 12,4.712C12,5.001 11.776,5.236 11.5,5.236C11.224,5.236 11,5.001 11,4.712C11,4.423 11.224,4.189 11.5,4.189ZM15.5,4.189C15.776,4.189 16,4.423 16,4.712C16,5.001 15.776,5.236 15.5,5.236C15.224,5.236 15,5.001 15,4.712C15,4.423 15.224,4.189 15.5,4.189ZM19.5,4.189C19.776,4.189 20,4.423 20,4.712C20,5.001 19.776,5.236 19.5,5.236C19.224,5.236 19,5.001 19,4.712C19,4.423 19.224,4.189 19.5,4.189ZM7.5,4.189C7.776,4.189 8,4.423 8,4.712C8,5.001 7.776,5.236 7.5,5.236C7.224,5.236 7,5.001 7,4.712C7,4.423 7.224,4.189 7.5,4.189ZM5.5,3.142C5.776,3.142 6,3.376 6,3.665C6,3.954 5.776,4.189 5.5,4.189C5.224,4.189 5,3.954 5,3.665C5,3.376 5.224,3.142 5.5,3.142ZM8.5,2.094C8.776,2.094 9,2.329 9,2.618C9,2.907 8.776,3.142 8.5,3.142C8.224,3.142 8,2.907 8,2.618C8,2.329 8.224,2.094 8.5,2.094ZM14.5,2.094C14.776,2.094 15,2.329 15,2.618C15,2.907 14.776,3.142 14.5,3.142C14.224,3.142 14,2.907 14,2.618C14,2.329 14.224,2.094 14.5,2.094ZM17.5,2.094C17.776,2.094 18,2.329 18,2.618C18,2.907 17.776,3.142 17.5,3.142C17.224,3.142 17,2.907 17,2.618C17,2.329 17.224,2.094 17.5,2.094ZM11.5,1.047C11.776,1.047 12,1.282 12,1.571C12,1.86 11.776,2.094 11.5,2.094C11.224,2.094 11,1.86 11,1.571C11,1.282 11.224,1.047 11.5,1.047Z" clip-rule="evenodd" fill-rule="evenodd" fill="#FF9922"/>
</g>
<defs>
<filter id="filter1_109" x="-4" y="-4" width="20" height="19" filterUnits="userSpaceOnUse" color-interpolation-filters="sRGB">
<feFlood flood-opacity="0" result="BackgroundImageFix"/>
<feColorMatrix in="SourceAlpha" type="matrix" values="0 0 0 0 0 0 0 0 0 0 0 0 0 0 0 0 0 0 127 0" result="hardAlpha"/>
<feMorphology radius="0" operator="dilate" in="SourceAlpha" result="0dropshadow"/>
<feOffset dx="0" dy="4"/>
<feGaussianBlur stdDeviation="2"/>
<feComposite in2="hardAlpha" operator="out"/>
<feColorMatrix type="matrix" values="0 0 0 0 0 0 0 0 0 0 0 0 0 0 0 0 0 0 0.25 0"/>
<feBlend mode="normal" in2="BackgroundImageFix" result="0dropshadow"/>
<feBlend mode="normal" in="SourceGraphic" in2="0dropshadow" result="shape"/>
</filter>
</defs>
</svg>
