<svg width="32" height="34" viewBox="0 0 32 34" fill="none" xmlns="http://www.w3.org/2000/svg" xmlns:xlink="http://www.w3.org/1999/xlink">
<path d="M5.713,9.667L9.94,13.893L7.583,16.25L-0.667,8L7.583,-0.25L9.94,2.107L5.713,6.333L17.667,6.333C21.203,6.333 24.594,7.738 27.095,10.238C29.595,12.739 31,16.13 31,19.667C31,23.203 29.595,26.594 27.095,29.095C24.594,31.595 21.203,33 17.667,33L2.667,33L2.667,29.667L17.667,29.667C20.319,29.667 22.862,28.613 24.738,26.738C26.613,24.862 27.667,22.319 27.667,19.667C27.667,17.014 26.613,14.471 24.738,12.596C22.862,10.72 20.319,9.667 17.667,9.667L5.713,9.667Z" fill="#494949"/>
</svg>
