<svg width="60" height="78" viewBox="0 0 60 78" fill="none" xmlns="http://www.w3.org/2000/svg" xmlns:xlink="http://www.w3.org/1999/xlink">
<path d="M14.017,15.6C14.017,6.984 21.173,0 30,0C38.827,0 45.983,6.984 45.983,15.6L45.983,39C45.983,47.616 38.827,54.6 30,54.6C21.173,54.6 14.017,47.616 14.017,39L14.017,15.6Z" fill="#FFFFFF"/>
<path d="M8.01,39.307C8.01,39.307 8.01,39.307 8.01,39.307C8.01,39.309 8.01,39.313 8.01,39.318C8.008,39.337 8.006,39.377 8.003,39.436C7.998,39.554 7.992,39.747 7.992,40.005C7.992,40.524 8.017,41.292 8.123,42.226C8.338,44.112 8.87,46.558 10.098,48.956C11.309,51.32 13.196,53.642 16.197,55.4C19.208,57.163 23.586,58.5 30,58.5C36.414,58.5 40.792,57.163 43.803,55.4C46.804,53.642 48.691,51.32 49.902,48.956C51.13,46.558 51.662,44.112 51.877,42.226C51.983,41.292 52.008,40.524 52.008,40.005C52.008,39.747 52.002,39.554 51.997,39.436C51.994,39.377 51.992,39.337 51.99,39.318C51.809,37.173 53.443,35.292 55.641,35.113C57.84,34.935 59.772,36.53 59.955,38.676L55.973,39C59.955,38.676 59.955,38.678 59.955,38.681L59.956,38.686L59.957,38.698L59.959,38.729L59.965,38.816C59.97,38.885 59.975,38.977 59.98,39.09C59.991,39.315 60,39.624 60,40.005C60,40.767 59.963,41.827 59.819,43.087C59.535,45.588 58.818,48.992 57.05,52.444C55.264,55.93 52.406,59.458 47.914,62.088C44.255,64.231 39.675,65.683 33.996,66.143L33.996,70.2L49.979,70.2C52.186,70.2 53.975,71.946 53.975,74.1C53.975,76.254 52.186,78 49.979,78L10.021,78C7.814,78 6.025,76.254 6.025,74.1C6.025,71.946 7.814,70.2 10.021,70.2L26.004,70.2L26.004,66.143C20.325,65.683 15.745,64.231 12.086,62.088C7.594,59.458 4.736,55.93 2.95,52.444C1.182,48.992 0.465,45.588 0.181,43.087C0.037,41.827 0,40.767 0,40.005C0,39.624 0.009,39.315 0.02,39.09C0.025,38.977 0.03,38.885 0.035,38.816L0.041,38.729L0.043,38.698L0.044,38.686L0.045,38.681C0.045,38.678 0.045,38.676 4.027,39L0.045,38.676C0.228,36.53 2.16,34.935 4.359,35.113C6.552,35.292 8.184,37.168 8.01,39.307ZM51.99,39.318L51.99,39.31C51.99,39.313 51.99,39.314 51.99,39.318Z" clip-rule="evenodd" fill-rule="evenodd" fill="#FFFFFF"/>
</svg>
