<svg width="32" height="32" viewBox="0 0 32 32" fill="none" xmlns="http://www.w3.org/2000/svg" xmlns:xlink="http://www.w3.org/1999/xlink">
<path d="M20.8,0C21.683,0 22.4,0.796 22.4,1.778L22.4,5.333L30.4,5.333C31.283,5.333 32,6.13 32,7.111L32,30.222C32,31.204 31.283,32 30.4,32L1.6,32C0.717,32 0,31.204 0,30.222L0,7.111C0,6.13 0.717,5.333 1.6,5.333L9.6,5.333L9.6,1.778C9.6,0.796 10.317,0 11.2,0L20.8,0ZM9.6,8.889L6.4,8.889L6.4,28.444L9.6,28.444L9.6,8.889ZM25.6,8.889L22.4,8.889L22.4,28.444L25.6,28.444L25.6,8.889ZM19.2,3.556L12.8,3.556L12.8,5.333L19.2,5.333L19.2,3.556Z" fill="#FFFFFF"/>
</svg>
