<svg width="56" height="50" viewBox="0 0 56 50" fill="none" xmlns="http://www.w3.org/2000/svg" xmlns:xlink="http://www.w3.org/1999/xlink">
<path d="M28.499,49.889C27.596,49.687 27.227,49.494 26.702,48.949C25.959,48.179 25.848,47.859 25.854,46.514C25.859,45.139 26.113,44.262 27.022,42.453L27.543,41.417L29.304,41.417C30.913,41.421 31.145,41.371 31.992,41.114C33.384,40.654 34.807,39.682 35.579,38.663L35.92,38.213L36.854,39.147C37.848,40.144 38.749,40.71 40.048,41.156C41.087,41.514 43.49,41.519 44.816,41.156C47.853,40.348 49.992,37.988 50.761,34.597C50.85,34.206 51.303,30.69 51.768,26.784C52.233,22.878 52.627,19.697 52.645,19.714C52.752,19.819 54.047,24.668 54.476,26.572C56.534,35.713 56.508,41.935 54.397,45.569C53.533,47.055 51.845,48.243 50.074,48.609C48.928,48.848 48.296,48.82 47.304,48.503C44.722,47.673 41.711,47.811 36.222,49.01C31.937,49.946 29.856,50.179 28.499,49.874L28.499,49.889ZM15.633,40.074C14.699,39.862 13.656,39.443 12.93,38.984L12.345,38.612L12.345,27.854L12.345,17.096L11.173,17.017C10.528,16.972 9.985,16.953 9.966,16.971C9.947,16.971 9.893,21.819 9.846,27.701L9.76,38.396L9.325,38.566C8.053,39.068 5.086,39.112 3.869,38.649C1.998,37.936 0.697,36.272 0.156,33.898C0.032,33.353 0,31.23 0,23.511L0,13.809L0.262,12.896C0.85,10.84 2.16,8.799 3.562,7.754C5.106,6.603 6.475,6.218 9.026,6.218L10.555,6.218L11.247,5.524C11.627,5.142 12.229,4.606 12.585,4.334C15.168,2.356 18.612,1.834 22.002,2.908L23.036,3.234L23.337,2.871C24.312,1.692 25.619,0.809 27.123,0.312C27.961,0.037 28.219,0.005 29.789,0C31.746,0 32.457,0.133 33.868,0.789C34.903,1.27 35.817,1.879 36.83,2.763L37.611,3.444L38.51,3.279C39.71,3.054 43.02,3.026 43.873,3.233C44.79,3.453 46.703,4.391 47.595,5.059C48.392,5.655 49.272,6.7 49.722,7.586C50.377,8.875 50.827,10.931 50.827,12.629C50.827,13.198 50.289,18.148 49.606,23.864C48.293,34.84 48.292,34.849 47.444,36.326C46.693,37.634 45.394,38.564 43.889,38.872C43.539,38.945 42.727,38.982 42.085,38.954C41.047,38.908 40.831,38.867 40.148,38.531C39.152,38.044 38.173,37.082 37.693,36.119L37.324,35.377L37.324,24.306L37.324,13.234L37.688,12.477L38.052,11.72L37.207,10.894C36.742,10.439 36.307,10.1 36.241,10.141C35.998,10.288 35.311,11.543 35.047,12.321L34.776,13.12L34.717,24.134C34.664,33.87 34.635,35.204 34.472,35.624C33.958,36.937 32.997,37.962 31.727,38.55C31.036,38.872 30.808,38.917 29.706,38.954C27.688,39.023 26.06,38.633 25.195,37.861L24.747,37.461L24.747,26.004L24.747,14.546L23.53,14.546L22.314,14.546L22.286,26.73L22.258,38.915L21.388,39.342C20.91,39.576 20.206,39.849 19.823,39.949C18.844,40.201 16.53,40.266 15.635,40.064L15.633,40.074Z" fill="#FFFFFF"/>
</svg>
