<svg width="64" height="88" viewBox="0 0 64 88" fill="none" xmlns="http://www.w3.org/2000/svg" xmlns:xlink="http://www.w3.org/1999/xlink">
<path d="M27.068,30.022L19.698,32.713L19.698,47.03L11.643,47.03L11.643,27.033L11.704,27.033L32.92,19.284C33.903,18.908 34.974,18.719 36.07,18.755C38.259,18.81 40.376,19.547 42.128,20.865C43.88,22.183 45.179,24.015 45.844,26.107C46.593,28.463 47.278,30.054 47.898,30.883C49.773,33.39 52.204,35.424 54.999,36.825C57.794,38.225 60.876,38.953 64,38.95L64,47.03C59.841,47.034 55.732,46.114 51.97,44.335C48.208,42.556 44.887,39.962 42.244,36.74L39.904,50.06L47.89,57.816L47.89,87.429L39.835,87.429L39.835,63.246L31.579,55.219L27.765,72.582L0,67.674L1.402,59.715L21.233,63.222L27.068,30.022ZM41.849,16.731C39.713,16.731 37.664,15.88 36.153,14.364C34.643,12.849 33.794,10.794 33.794,8.651C33.794,6.508 34.643,4.453 36.153,2.938C37.664,1.423 39.713,0.571 41.849,0.571C43.985,0.571 46.034,1.423 47.545,2.938C49.055,4.453 49.904,6.508 49.904,8.651C49.904,10.794 49.055,12.849 47.545,14.364C46.034,15.88 43.985,16.731 41.849,16.731Z" fill="#FFFFFF"/>
</svg>
